# xmcd
#
# Track frame offsets: 
#        150
#        15823
#        34905
#        52461
#        72217
#        88260
#        103702
#        122190
#        140678
#        155164
#        175008
#
# Disc length: 2594 seconds
#
# Revision: 0
# Processed by: cddbd v1.5.2PL0 Copyright (c) Steve Scherf et al.
# Submitted via: ExactAudioCopy v1.3
#
DISCID=9c0a200b
DTITLE=Ray Cashman - Houston Electric
DYEAR=2019
DGENRE=Electric Blues
TTITLE0=Feet On The Ground
TTITLE1=Good Times
TTITLE2=Devil's Smile
TTITLE3=Fire Dance
TTITLE4=Electric Pistol
TTITLE5=Domino
TTITLE6=Pickle Juice
TTITLE7=Full Moon Over Orlean
TTITLE8=Hardway
TTITLE9=Reefer Headed Woman
TTITLE10=Millionaire
EXTD=
EXTT0=
EXTT1=
EXTT2=
EXTT3=
EXTT4=
EXTT5=
EXTT6=
EXTT7=
EXTT8=
EXTT9=
EXTT10=
PLAYORDER=
